<svg xmlns="http://www.w3.org/2000/svg" viewBox="0 0 64 64" role="img" aria-labelledby="title description">
  <title id="title">叙界</title>
  <desc id="description">一本展开的书与一颗星，代表小说创作与灵感</desc>
  <rect width="64" height="64" rx="14" fill="#8b3d2c"/>
  <path d="M10 16.5c8.7-1.6 15.7.4 21 6v29c-5.4-4.8-12.4-6.5-21-5.1V16.5Z" fill="#fffaf0"/>
  <path d="M54 16.5c-8.7-1.6-15.7.4-21 6v29c5.4-4.8 12.4-6.5 21-5.1V16.5Z" fill="#fffaf0"/>
  <path d="M31 22.5h2V52h-2z" fill="#d9b070"/>
  <path d="m48 9.5 1.7 4.1 4.3 1.7-4.3 1.7-1.7 4.1-1.7-4.1-4.3-1.7 4.3-1.7L48 9.5Z" fill="#f2cb7b"/>
  <path d="M15.5 25.5c4.2-.3 7.8.6 10.8 2.7M15.5 32c4.2-.3 7.8.6 10.8 2.7M48.5 25.5c-4.2-.3-7.8.6-10.8 2.7M48.5 32c-4.2-.3-7.8.6-10.8 2.7" fill="none" stroke="#c78a78" stroke-linecap="round" stroke-width="2"/>
</svg>
